<svg width="32" height="32" viewBox="0 0 32 32" fill="none" xmlns="http://www.w3.org/2000/svg">
<path d="M26.8663 27.7772H5.13463C3.83407 27.7755 2.58728 27.258 1.66772 26.3383C0.748171 25.4186 0.230944 24.1717 0.229492 22.8711V9.12847C0.230944 7.82799 0.748201 6.58119 1.66778 5.66161C2.58736 4.74204 3.83416 4.22478 5.13463 4.22333H26.8663C28.1669 4.22478 29.4137 4.74201 30.3335 5.66156C31.2532 6.58111 31.7707 7.82791 31.7724 9.12847V22.8711C31.7709 24.1718 31.2535 25.4189 30.3338 26.3386C29.414 27.2584 28.167 27.7757 26.8663 27.7772ZM5.13463 6.50904C4.44014 6.50977 3.7743 6.78598 3.28322 7.27706C2.79214 7.76814 2.51593 8.43398 2.51521 9.12847V22.8711C2.51569 23.5658 2.79179 24.2318 3.2829 24.7231C3.77401 25.2144 4.43998 25.4907 5.13463 25.4914H26.8663C27.561 25.4907 28.2271 25.2144 28.7184 24.7232C29.2096 24.2319 29.4859 23.5658 29.4866 22.8711V9.12847C29.4857 8.43389 29.2093 7.76806 28.718 7.277C28.2268 6.78595 27.5609 6.50977 26.8663 6.50904H5.13463Z" fill="#62D0B6"/>
<path d="M15.9866 19.0763C15.0277 19.0858 14.0936 18.7717 13.3352 18.1849L1.11302 8.44501C0.875994 8.25599 0.723761 7.98056 0.689811 7.6793C0.655862 7.37804 0.742977 7.07564 0.931993 6.83861C1.12101 6.60158 1.39644 6.44935 1.6977 6.4154C1.99896 6.38145 2.30137 6.46856 2.53839 6.65758L14.7569 16.3975C15.1179 16.6535 15.5497 16.7905 15.9922 16.7893C16.4347 16.7882 16.8659 16.6489 17.2255 16.3911L29.2931 6.66215C29.529 6.47192 29.8307 6.38316 30.1319 6.4154C30.4332 6.44763 30.7093 6.59822 30.8995 6.83404C31.0898 7.06985 31.1785 7.37158 31.1463 7.67283C31.1141 7.97409 30.9635 8.25021 30.7277 8.44044L18.6636 18.1693C17.9 18.7665 16.956 19.0863 15.9866 19.0763Z" fill="#62D0B6"/>
</svg>
