<svg width="32" height="32" viewBox="0 0 32 32" fill="none" xmlns="http://www.w3.org/2000/svg">
<g clip-path="url(#clip0_506_269)">
<path d="M0.00680363 22.2053C0.00680363 26.4124 3.41715 29.8228 7.62422 29.8228C11.8314 29.8228 15.2417 26.4124 15.2417 22.2053C15.2417 17.9982 11.8314 14.5879 7.62422 14.5879C6.7596 14.5879 5.93196 14.7386 5.15716 15.0042C6.87141 5.17257 14.5382 -1.16773 7.4311 4.05046C-0.449598 9.83686 -0.00163658 21.9725 0.00718155 22.1949C0.00718155 22.1984 0.00680363 22.2015 0.00680363 22.2053Z" fill="#EEEEEE"/>
<path d="M16.7646 22.2053C16.7646 26.4124 20.175 29.8228 24.3821 29.8228C28.5892 29.8228 31.9996 26.4124 31.9996 22.2053C31.9996 17.9982 28.5892 14.5879 24.3821 14.5879C23.5174 14.5879 22.6898 14.7386 21.915 15.0042C23.6292 5.17257 31.296 -1.16773 24.1889 4.05046C16.3082 9.83686 16.7561 21.9725 16.765 22.1949C16.765 22.1984 16.7646 22.2015 16.7646 22.2053Z" fill="#EEEEEE"/>
</g>
<defs>
<clipPath id="clip0_506_269">
<rect width="32" height="32" fill="white"/>
</clipPath>
</defs>
</svg>
