<svg width="19" height="18" viewBox="0 0 19 18" fill="none" xmlns="http://www.w3.org/2000/svg">
<g clip-path="url(#clip0_506_492)">
<path d="M13.6484 1.09766C12.1511 1.09766 10.8385 1.76531 9.85258 3.02847C9.7211 3.19694 9.60389 3.36548 9.5 3.52871C9.39611 3.36545 9.2789 3.19694 9.14742 3.02847C8.16146 1.76531 6.84887 1.09766 5.35156 1.09766C2.52303 1.09766 0.5 3.46603 0.5 6.30795C0.5 9.55755 3.16333 12.6202 9.13568 16.2382C9.24765 16.306 9.37382 16.3399 9.5 16.3399C9.62618 16.3399 9.75235 16.306 9.86432 16.2382C15.8367 12.6202 18.5 9.55759 18.5 6.30799C18.5 3.46754 16.4786 1.09766 13.6484 1.09766ZM15.236 10.3543C13.9926 11.7416 12.1137 13.2024 9.5 14.8129C6.88631 13.2024 5.00738 11.7416 3.76401 10.3543C2.51393 8.95944 1.90625 7.63587 1.90625 6.30799C1.90625 4.26175 3.28909 2.50391 5.35156 2.50391C6.40189 2.50391 7.29746 2.96059 8.01342 3.86129C8.5859 4.58161 8.82711 5.32541 8.8288 5.33072C8.92038 5.62445 9.19235 5.82452 9.50004 5.82452C9.80772 5.82452 10.0797 5.62448 10.1713 5.33072C10.1735 5.32361 10.4075 4.60302 10.9611 3.8937C11.681 2.97148 12.5851 2.50387 13.6484 2.50387C15.7131 2.50387 17.0938 4.26341 17.0938 6.30795C17.0938 7.63584 16.4861 8.9594 15.236 10.3543Z" fill="#A5A5A5"/>
</g>
<defs>
<clipPath id="clip0_506_492">
<rect width="18" height="18" fill="white" transform="translate(0.5)"/>
</clipPath>
</defs>
</svg>
