<svg width="45" height="44" viewBox="0 0 45 44" fill="none" xmlns="http://www.w3.org/2000/svg">
<g clip-path="url(#clip0_13_15698)">
<path d="M33.4025 35.2002C30.9825 35.2002 29.0025 37.1802 29.0025 39.6002C29.0025 42.0202 30.9825 44.0002 33.4025 44.0002C35.8225 44.0002 37.8025 42.0202 37.8025 39.6002C37.8025 37.1802 35.8225 35.2002 33.4025 35.2002ZM18.0025 35.2002C15.5825 35.2002 13.6025 37.1802 13.6025 39.6002C13.6025 42.0202 15.5825 44.0002 18.0025 44.0002C20.4225 44.0002 22.4025 42.0202 22.4025 39.6002C22.4025 37.1802 20.4225 35.2002 18.0025 35.2002Z" fill="#62D0B6"/>
<path d="M44.4033 8.8L40.0033 30.8H13.6033L9.20332 4.4H0.40332V0H12.9433L13.6033 3.74L17.3433 26.4H36.4833L37.3633 22H22.4033V17.6H38.2433L39.1233 13.2H22.4033V8.8H44.4033Z" fill="#62D0B6"/>
</g>
<defs>
<clipPath id="clip0_13_15698">
<rect width="44" height="44" fill="white" transform="translate(0.40332)"/>
</clipPath>
</defs>
</svg>
