<svg width="17" height="16" viewBox="0 0 17 16" fill="none" xmlns="http://www.w3.org/2000/svg">
<path fill-rule="evenodd" clip-rule="evenodd" d="M4.29229 4.5637C4.28235 4.45368 4.29543 4.3428 4.33071 4.23812C4.36599 4.13344 4.42269 4.03726 4.49719 3.9557C4.57169 3.87414 4.66237 3.809 4.76344 3.76442C4.86451 3.71984 4.97376 3.6968 5.08422 3.69678H14.726C14.8451 3.69683 14.9627 3.72362 15.07 3.77518C15.1774 3.82673 15.2718 3.90173 15.3462 3.99465C15.4207 4.08757 15.4734 4.19602 15.5004 4.31202C15.5273 4.42801 15.5279 4.54858 15.5021 4.66482L14.6874 8.33702C14.5472 8.96809 14.196 9.53247 13.6918 9.93696C13.1875 10.3414 12.5604 10.5618 11.9139 10.5617H7.42934C6.72022 10.5617 6.03673 10.2965 5.51321 9.81823C4.9897 9.33992 4.66402 8.68309 4.6002 7.97685L4.29229 4.5637ZM5.4569 4.83298L5.73186 7.87459C5.77017 8.29853 5.96573 8.69279 6.28008 8.9798C6.59443 9.26682 7.00481 9.42581 7.43048 9.4255H11.9151C12.3028 9.42541 12.679 9.29307 12.9814 9.05035C13.2838 8.80763 13.4944 8.46903 13.5785 8.09047L14.3022 4.83298H5.4569Z" fill="#333333"/>
<path fill-rule="evenodd" clip-rule="evenodd" d="M1.94238 1.79002C1.94238 1.63935 2.00224 1.49486 2.10878 1.38832C2.21532 1.28178 2.35981 1.22192 2.51048 1.22192H4.50338C4.64234 1.22206 4.77643 1.27313 4.88028 1.36547C4.98413 1.4578 5.05054 1.585 5.06694 1.72299L5.52369 5.58721C5.54132 5.73697 5.49873 5.88761 5.40529 6.00597C5.31186 6.12434 5.17523 6.20074 5.02546 6.21837C4.8757 6.236 4.72506 6.19341 4.6067 6.09997C4.48833 6.00654 4.41193 5.86991 4.3943 5.72014L3.99777 2.35699H2.51048C2.35981 2.35699 2.21532 2.29714 2.10878 2.1906C2.00224 2.08406 1.94238 1.94069 1.94238 1.79002ZM7.05529 13.5304C7.20596 13.5304 7.35046 13.4705 7.457 13.364C7.56353 13.2575 7.62339 13.113 7.62339 12.9623C7.62339 12.8116 7.56353 12.6671 7.457 12.5606C7.35046 12.454 7.20596 12.3942 7.05529 12.3942C6.90462 12.3942 6.76012 12.454 6.65358 12.5606C6.54704 12.6671 6.48719 12.8116 6.48719 12.9623C6.48719 13.113 6.54704 13.2575 6.65358 13.364C6.76012 13.4705 6.90462 13.5304 7.05529 13.5304ZM7.05529 14.6666C7.2791 14.6666 7.50072 14.6225 7.7075 14.5369C7.91427 14.4512 8.10215 14.3257 8.26041 14.1674C8.41867 14.0092 8.54421 13.8213 8.62986 13.6145C8.71551 13.4077 8.75959 13.1861 8.75959 12.9623C8.75959 12.7385 8.71551 12.5169 8.62986 12.3101C8.54421 12.1033 8.41867 11.9154 8.26041 11.7572C8.10215 11.5989 7.91427 11.4734 7.7075 11.3877C7.50072 11.3021 7.2791 11.258 7.05529 11.258C6.60328 11.258 6.16978 11.4375 5.85016 11.7572C5.53055 12.0768 5.35099 12.5103 5.35099 12.9623C5.35099 13.4143 5.53055 13.8478 5.85016 14.1674C6.16978 14.487 6.60328 14.6666 7.05529 14.6666ZM12.2386 13.5304C12.3893 13.5304 12.5338 13.4705 12.6403 13.364C12.7469 13.2575 12.8067 13.113 12.8067 12.9623C12.8067 12.8116 12.7469 12.6671 12.6403 12.5606C12.5338 12.454 12.3893 12.3942 12.2386 12.3942C12.088 12.3942 11.9435 12.454 11.8369 12.5606C11.7304 12.6671 11.6705 12.8116 11.6705 12.9623C11.6705 13.113 11.7304 13.2575 11.8369 13.364C11.9435 13.4705 12.088 13.5304 12.2386 13.5304ZM12.2386 14.6666C12.4624 14.6666 12.6841 14.6225 12.8908 14.5369C13.0976 14.4512 13.2855 14.3257 13.4438 14.1674C13.602 14.0092 13.7276 13.8213 13.8132 13.6145C13.8989 13.4077 13.9429 13.1861 13.9429 12.9623C13.9429 12.7385 13.8989 12.5169 13.8132 12.3101C13.7276 12.1033 13.602 11.9154 13.4438 11.7572C13.2855 11.5989 13.0976 11.4734 12.8908 11.3877C12.6841 11.3021 12.4624 11.258 12.2386 11.258C11.7866 11.258 11.3531 11.4375 11.0335 11.7572C10.7139 12.0768 10.5343 12.5103 10.5343 12.9623C10.5343 13.4143 10.7139 13.8478 11.0335 14.1674C11.3531 14.487 11.7866 14.6666 12.2386 14.6666Z" fill="#333333"/>
</svg>
