<svg width="73" height="21" viewBox="0 0 73 21" fill="none" xmlns="http://www.w3.org/2000/svg">
<g clip-path="url(#clip0_34_29149)">
<path d="M12.9813 9.00829C12.9365 8.8704 12.8174 8.7699 12.6739 8.74908L8.64387 8.16345L6.84153 4.51161C6.77739 4.38161 6.64498 4.29932 6.50002 4.29932C6.35504 4.29932 6.22266 4.38161 6.15849 4.51161L4.35607 8.16345L0.326087 8.74908C0.182656 8.7699 0.0634476 8.8704 0.0186587 9.00827C-0.0261556 9.14616 0.0112193 9.29752 0.115041 9.3987L3.03109 12.2413L2.34281 16.2551C2.31828 16.398 2.37703 16.5423 2.49431 16.6276C2.56066 16.6758 2.63924 16.7003 2.7182 16.7003C2.77884 16.7003 2.83967 16.6859 2.89538 16.6566L6.5 14.7615L10.1045 16.6565C10.2328 16.724 10.3883 16.7128 10.5056 16.6276C10.6228 16.5423 10.6816 16.3979 10.6571 16.255L9.9686 12.2413L12.885 9.39867C12.9888 9.29752 13.0262 9.14616 12.9813 9.00829Z" fill="#D6D6D6"/>
</g>
<g clip-path="url(#clip1_34_29149)">
<path d="M27.9813 9.00829C27.9365 8.8704 27.8174 8.7699 27.6739 8.74908L23.6439 8.16345L21.8415 4.51161C21.7774 4.38161 21.645 4.29932 21.5 4.29932C21.355 4.29932 21.2227 4.38161 21.1585 4.51161L19.3561 8.16345L15.3261 8.74908C15.1827 8.7699 15.0634 8.8704 15.0187 9.00827C14.9738 9.14616 15.0112 9.29752 15.115 9.3987L18.0311 12.2413L17.3428 16.2551C17.3183 16.398 17.377 16.5423 17.4943 16.6276C17.5607 16.6758 17.6392 16.7003 17.7182 16.7003C17.7788 16.7003 17.8397 16.6859 17.8954 16.6566L21.5 14.7615L25.1045 16.6565C25.2328 16.724 25.3883 16.7128 25.5056 16.6276C25.6228 16.5423 25.6816 16.3979 25.6571 16.255L24.9686 12.2413L27.885 9.39867C27.9888 9.29752 28.0262 9.14616 27.9813 9.00829Z" fill="#FFC62A"/>
</g>
<g clip-path="url(#clip2_34_29149)">
<path d="M42.9813 9.00829C42.9365 8.8704 42.8174 8.7699 42.6739 8.74908L38.6439 8.16345L36.8415 4.51161C36.7774 4.38161 36.645 4.29932 36.5 4.29932C36.355 4.29932 36.2227 4.38161 36.1585 4.51161L34.3561 8.16345L30.3261 8.74908C30.1827 8.7699 30.0634 8.8704 30.0187 9.00827C29.9738 9.14616 30.0112 9.29752 30.115 9.3987L33.0311 12.2413L32.3428 16.2551C32.3183 16.398 32.377 16.5423 32.4943 16.6276C32.5607 16.6758 32.6392 16.7003 32.7182 16.7003C32.7788 16.7003 32.8397 16.6859 32.8954 16.6566L36.5 14.7615L40.1045 16.6565C40.2328 16.724 40.3883 16.7128 40.5056 16.6276C40.6228 16.5423 40.6816 16.3979 40.6571 16.255L39.9686 12.2413L42.885 9.39867C42.9888 9.29752 43.0262 9.14616 42.9813 9.00829Z" fill="#FFC62A"/>
</g>
<g clip-path="url(#clip3_34_29149)">
<path d="M57.9813 9.00829C57.9365 8.8704 57.8174 8.7699 57.6739 8.74908L53.6439 8.16345L51.8415 4.51161C51.7774 4.38161 51.645 4.29932 51.5 4.29932C51.355 4.29932 51.2227 4.38161 51.1585 4.51161L49.3561 8.16345L45.3261 8.74908C45.1827 8.7699 45.0634 8.8704 45.0187 9.00827C44.9738 9.14616 45.0112 9.29752 45.115 9.3987L48.0311 12.2413L47.3428 16.2551C47.3183 16.398 47.377 16.5423 47.4943 16.6276C47.5607 16.6758 47.6392 16.7003 47.7182 16.7003C47.7788 16.7003 47.8397 16.6859 47.8954 16.6566L51.5 14.7615L55.1045 16.6565C55.2328 16.724 55.3883 16.7128 55.5056 16.6276C55.6228 16.5423 55.6816 16.3979 55.6571 16.255L54.9686 12.2413L57.885 9.39867C57.9888 9.29752 58.0262 9.14616 57.9813 9.00829Z" fill="#FFC62A"/>
</g>
<g clip-path="url(#clip4_34_29149)">
<path d="M72.9813 9.00829C72.9365 8.8704 72.8174 8.7699 72.6739 8.74908L68.6439 8.16345L66.8415 4.51161C66.7774 4.38161 66.645 4.29932 66.5 4.29932C66.355 4.29932 66.2227 4.38161 66.1585 4.51161L64.3561 8.16345L60.3261 8.74908C60.1827 8.7699 60.0634 8.8704 60.0187 9.00827C59.9738 9.14616 60.0112 9.29752 60.115 9.3987L63.0311 12.2413L62.3428 16.2551C62.3183 16.398 62.377 16.5423 62.4943 16.6276C62.5607 16.6758 62.6392 16.7003 62.7182 16.7003C62.7788 16.7003 62.8397 16.6859 62.8954 16.6566L66.5 14.7615L70.1045 16.6565C70.2328 16.724 70.3883 16.7128 70.5056 16.6276C70.6228 16.5423 70.6816 16.3979 70.6571 16.255L69.9686 12.2413L72.885 9.39867C72.9888 9.29752 73.0262 9.14616 72.9813 9.00829Z" fill="#FFC62A"/>
</g>
<defs>
<clipPath id="clip0_34_29149">
<rect width="13" height="13" fill="white" transform="translate(0 4)"/>
</clipPath>
<clipPath id="clip1_34_29149">
<rect width="13" height="13" fill="white" transform="translate(15 4)"/>
</clipPath>
<clipPath id="clip2_34_29149">
<rect width="13" height="13" fill="white" transform="translate(30 4)"/>
</clipPath>
<clipPath id="clip3_34_29149">
<rect width="13" height="13" fill="white" transform="translate(45 4)"/>
</clipPath>
<clipPath id="clip4_34_29149">
<rect width="13" height="13" fill="white" transform="translate(60 4)"/>
</clipPath>
</defs>
</svg>
