<svg width="12" height="12" viewBox="0 0 12 12" fill="none" xmlns="http://www.w3.org/2000/svg">
<path d="M2.19526 3.13807C1.93491 2.87772 1.93491 2.45561 2.19526 2.19526C2.45562 1.93491 2.87772 1.93491 3.13807 2.19526L5.99999 5.05718L8.86189 2.19526C9.12225 1.93491 9.54438 1.93491 9.80473 2.19526C10.0651 2.45561 10.0651 2.87772 9.80473 3.13807L6.94279 5.99999L9.80473 8.86189C10.0651 9.12225 10.0651 9.54438 9.80473 9.80473C9.54438 10.0651 9.12225 10.0651 8.86189 9.80473L5.99999 6.94279L3.13807 9.80473C2.87772 10.0651 2.45562 10.0651 2.19526 9.80473C1.93491 9.54438 1.93491 9.12225 2.19526 8.86189L5.05718 5.99999L2.19526 3.13807Z" fill="#444444"/>
</svg>
